<?xml version="1.0"?>
<svg width="512" height="512" xmlns="http://www.w3.org/2000/svg" xmlns:svg="http://www.w3.org/2000/svg" version="1.1" xml:space="preserve">
 <g class="layer">
  <title>Layer 1</title>
  <g id="SVGRepo_bgCarrier" stroke-width="0"/>
  <g id="SVGRepo_tracerCarrier" stroke-linecap="round" stroke-linejoin="round"/>
  <g id="SVGRepo_iconCarrier">
   <g id="svg_1">
    <g id="svg_2">
     <path d="m444.63,498.67l-376.27,0l0,-66.39c0,-24.45 19.82,-44.27 44.27,-44.27l287.74,0c24.45,0 44.27,19.82 44.27,44.27l0,66.39l-0.01,0z" fill="#706f6f" id="svg_3"/>
     <path d="m97.88,277.34l-84.85,0c-6.11,0 -11.07,4.96 -11.07,11.07l0,22.13c0,6.12 4.96,11.07 11.07,11.07l82.39,0l2.46,-44.27z" fill="#706f6f" id="svg_4"/>
     <path d="m415.12,277.34l2.46,44.27l82.39,0c6.11,0 11.07,-4.95 11.07,-11.07l0,-22.13c0,-6.11 -4.96,-11.07 -11.07,-11.07l-84.85,0z" fill="#706f6f" id="svg_5"/>
    </g>
    <g id="svg_6" transform="matrix(1 0 0 1 0 0)">
     <path d="m68.37,432.54c0,-16.71 9.38,-31.1 23.05,-38.62l4,-72.05l-71.32,0l0,132.8c0,12.24 9.9,22.14 22.14,22.14l22.13,0l0,-44.27z" fill="#000000" id="svg_7"/>
     <path d="m417.58,321.86l4.01,72.05c13.66,7.52 23.04,21.91 23.04,38.62l0,44.27l22.13,0c12.22,0 22.14,-9.9 22.14,-22.14l0,-132.8l-71.32,0z" fill="#000000" id="svg_8"/>
    </g>
    <path d="m112.63,388.27l287.74,0c7.73,0 14.89,2.16 21.21,5.64l-16.79,-302.14c-2.48,-44.76 -39.5,-79.77 -84.32,-79.77l-127.95,0c-44.82,0 -81.84,35.01 -84.32,79.77l-16.79,302.14c6.32,-3.49 13.48,-5.64 21.21,-5.64" fill="#cccccc" id="svg_9"/>
    <path d="m360.59,105.28c-5.84,0 -10.72,-4.55 -11.03,-10.46c-0.85,-15.41 -13.64,-27.49 -29.07,-27.49l-127.97,0c-15.43,0 -28.21,12.09 -29.06,27.49c-0.34,6.11 -5.49,10.69 -11.66,10.46c-6.11,-0.35 -10.78,-5.57 -10.44,-11.67c1.5,-27.14 23.97,-48.42 51.16,-48.42l127.97,0c27.18,0 49.64,21.27 51.16,48.42c0.34,6.11 -4.34,11.32 -10.43,11.67c-0.23,0 -0.43,0 -0.63,0" fill="#706f6f" id="svg_10"/>
   </g>
  </g>
 </g>
</svg>